<mxfile host="Electron" modified="2023-07-22T08:50:08.411Z" agent="Mozilla/5.0 (Windows NT 10.0; Win64; x64) AppleWebKit/537.36 (KHTML, like Gecko) draw.io/21.6.1 Chrome/112.0.5615.204 Electron/24.6.1 Safari/537.36" etag="Hg92ESO_BLZ9VqcLJMOi" version="21.6.1" type="device">
  <diagram name="Page-1" id="Wikb6tTCLpTm9GBHcz7j">
    <mxGraphModel dx="1615" dy="968" grid="0" gridSize="10" guides="1" tooltips="1" connect="1" arrows="1" fold="1" page="0" pageScale="1" pageWidth="850" pageHeight="1100" math="0" shadow="0">
      <root>
        <mxCell id="0" />
        <mxCell id="1" parent="0" />
        <mxCell id="KzQZjvHMSEyYHCgOAX9f-4" style="edgeStyle=none;curved=1;rounded=0;orthogonalLoop=1;jettySize=auto;html=1;exitX=1;exitY=0.5;exitDx=0;exitDy=0;fontSize=12;startSize=8;endSize=8;" edge="1" parent="1" source="KzQZjvHMSEyYHCgOAX9f-2" target="KzQZjvHMSEyYHCgOAX9f-3">
          <mxGeometry relative="1" as="geometry" />
        </mxCell>
        <mxCell id="KzQZjvHMSEyYHCgOAX9f-5" value="1: request notif" style="edgeLabel;html=1;align=center;verticalAlign=middle;resizable=0;points=[];fontSize=16;rounded=0;" vertex="1" connectable="0" parent="KzQZjvHMSEyYHCgOAX9f-4">
          <mxGeometry x="-0.269" y="-2" relative="1" as="geometry">
            <mxPoint x="16" y="-16" as="offset" />
          </mxGeometry>
        </mxCell>
        <mxCell id="KzQZjvHMSEyYHCgOAX9f-2" value="Front-end" style="rounded=0;whiteSpace=wrap;html=1;fontSize=16;" vertex="1" parent="1">
          <mxGeometry x="88" y="235" width="120" height="60" as="geometry" />
        </mxCell>
        <mxCell id="KzQZjvHMSEyYHCgOAX9f-7" style="edgeStyle=none;rounded=0;orthogonalLoop=1;jettySize=auto;html=1;exitX=1;exitY=0.25;exitDx=0;exitDy=0;fontSize=12;startSize=8;endSize=8;entryX=0;entryY=0;entryDx=0;entryDy=32.5;entryPerimeter=0;" edge="1" parent="1" source="KzQZjvHMSEyYHCgOAX9f-3" target="KzQZjvHMSEyYHCgOAX9f-6">
          <mxGeometry relative="1" as="geometry" />
        </mxCell>
        <mxCell id="KzQZjvHMSEyYHCgOAX9f-8" value="2: store notif data" style="edgeLabel;html=1;align=center;verticalAlign=middle;resizable=0;points=[];fontSize=16;rounded=0;" vertex="1" connectable="0" parent="KzQZjvHMSEyYHCgOAX9f-7">
          <mxGeometry x="-0.0737" y="-2" relative="1" as="geometry">
            <mxPoint y="-16" as="offset" />
          </mxGeometry>
        </mxCell>
        <mxCell id="KzQZjvHMSEyYHCgOAX9f-17" style="edgeStyle=orthogonalEdgeStyle;rounded=0;orthogonalLoop=1;jettySize=auto;html=1;exitX=0.5;exitY=1;exitDx=0;exitDy=0;entryX=0;entryY=0.5;entryDx=0;entryDy=0;" edge="1" parent="1" source="KzQZjvHMSEyYHCgOAX9f-3" target="KzQZjvHMSEyYHCgOAX9f-11">
          <mxGeometry relative="1" as="geometry" />
        </mxCell>
        <mxCell id="KzQZjvHMSEyYHCgOAX9f-18" value="4: produce msg with ID" style="edgeLabel;html=1;align=center;verticalAlign=middle;resizable=0;points=[];fontSize=16;" vertex="1" connectable="0" parent="KzQZjvHMSEyYHCgOAX9f-17">
          <mxGeometry x="-0.041" y="1" relative="1" as="geometry">
            <mxPoint x="54" y="-16" as="offset" />
          </mxGeometry>
        </mxCell>
        <mxCell id="KzQZjvHMSEyYHCgOAX9f-3" value="notif-producer" style="rounded=0;whiteSpace=wrap;html=1;fontSize=16;" vertex="1" parent="1">
          <mxGeometry x="377" y="235" width="152" height="60" as="geometry" />
        </mxCell>
        <mxCell id="KzQZjvHMSEyYHCgOAX9f-9" style="edgeStyle=none;rounded=0;orthogonalLoop=1;jettySize=auto;html=1;exitX=0;exitY=0;exitDx=0;exitDy=62.25;exitPerimeter=0;entryX=1;entryY=0.75;entryDx=0;entryDy=0;fontSize=12;startSize=8;endSize=8;" edge="1" parent="1" source="KzQZjvHMSEyYHCgOAX9f-6" target="KzQZjvHMSEyYHCgOAX9f-3">
          <mxGeometry relative="1" as="geometry" />
        </mxCell>
        <mxCell id="KzQZjvHMSEyYHCgOAX9f-10" value="3: return ID" style="edgeLabel;html=1;align=center;verticalAlign=middle;resizable=0;points=[];fontSize=16;rounded=0;" vertex="1" connectable="0" parent="KzQZjvHMSEyYHCgOAX9f-9">
          <mxGeometry x="-0.149" y="4" relative="1" as="geometry">
            <mxPoint x="-16" y="11" as="offset" />
          </mxGeometry>
        </mxCell>
        <mxCell id="KzQZjvHMSEyYHCgOAX9f-27" style="edgeStyle=orthogonalEdgeStyle;rounded=0;orthogonalLoop=1;jettySize=auto;html=1;exitX=1;exitY=0;exitDx=0;exitDy=62.25;exitPerimeter=0;entryX=0;entryY=0.75;entryDx=0;entryDy=0;" edge="1" parent="1" source="KzQZjvHMSEyYHCgOAX9f-6" target="KzQZjvHMSEyYHCgOAX9f-19">
          <mxGeometry relative="1" as="geometry" />
        </mxCell>
        <mxCell id="KzQZjvHMSEyYHCgOAX9f-28" value="8: return notif data" style="edgeLabel;html=1;align=center;verticalAlign=middle;resizable=0;points=[];fontSize=16;" vertex="1" connectable="0" parent="KzQZjvHMSEyYHCgOAX9f-27">
          <mxGeometry x="-0.073" y="-2" relative="1" as="geometry">
            <mxPoint y="13" as="offset" />
          </mxGeometry>
        </mxCell>
        <mxCell id="KzQZjvHMSEyYHCgOAX9f-6" value="notification&lt;br&gt;db" style="shape=cylinder3;whiteSpace=wrap;html=1;boundedLbl=1;backgroundOutline=1;size=15;fontSize=16;rounded=0;" vertex="1" parent="1">
          <mxGeometry x="724" y="215" width="91" height="93" as="geometry" />
        </mxCell>
        <mxCell id="KzQZjvHMSEyYHCgOAX9f-29" style="edgeStyle=orthogonalEdgeStyle;rounded=0;orthogonalLoop=1;jettySize=auto;html=1;exitX=1;exitY=0.7;exitDx=0;exitDy=0;" edge="1" parent="1" source="KzQZjvHMSEyYHCgOAX9f-11" target="KzQZjvHMSEyYHCgOAX9f-19">
          <mxGeometry relative="1" as="geometry" />
        </mxCell>
        <mxCell id="KzQZjvHMSEyYHCgOAX9f-30" value="&lt;font style=&quot;font-size: 16px;&quot;&gt;6: return msg with ID&lt;/font&gt;" style="edgeLabel;html=1;align=center;verticalAlign=middle;resizable=0;points=[];" vertex="1" connectable="0" parent="KzQZjvHMSEyYHCgOAX9f-29">
          <mxGeometry x="-0.5065" relative="1" as="geometry">
            <mxPoint x="1" y="11" as="offset" />
          </mxGeometry>
        </mxCell>
        <mxCell id="KzQZjvHMSEyYHCgOAX9f-11" value="rabbitmq" style="shape=message;html=1;html=1;outlineConnect=0;labelPosition=center;verticalLabelPosition=bottom;align=center;verticalAlign=top;rounded=0;fontSize=16;" vertex="1" parent="1">
          <mxGeometry x="726" y="394" width="87" height="58" as="geometry" />
        </mxCell>
        <mxCell id="KzQZjvHMSEyYHCgOAX9f-21" style="edgeStyle=orthogonalEdgeStyle;rounded=0;orthogonalLoop=1;jettySize=auto;html=1;exitX=0.25;exitY=1;exitDx=0;exitDy=0;entryX=1;entryY=0.3;entryDx=0;entryDy=0;" edge="1" parent="1" source="KzQZjvHMSEyYHCgOAX9f-19" target="KzQZjvHMSEyYHCgOAX9f-11">
          <mxGeometry relative="1" as="geometry" />
        </mxCell>
        <mxCell id="KzQZjvHMSEyYHCgOAX9f-22" value="5: consume msg" style="edgeLabel;html=1;align=center;verticalAlign=middle;resizable=0;points=[];fontSize=16;" vertex="1" connectable="0" parent="KzQZjvHMSEyYHCgOAX9f-21">
          <mxGeometry x="-0.215" y="-4" relative="1" as="geometry">
            <mxPoint x="-128" y="-8" as="offset" />
          </mxGeometry>
        </mxCell>
        <mxCell id="KzQZjvHMSEyYHCgOAX9f-24" style="edgeStyle=orthogonalEdgeStyle;rounded=0;orthogonalLoop=1;jettySize=auto;html=1;exitX=0;exitY=0.25;exitDx=0;exitDy=0;entryX=1;entryY=0;entryDx=0;entryDy=31;entryPerimeter=0;" edge="1" parent="1" source="KzQZjvHMSEyYHCgOAX9f-19" target="KzQZjvHMSEyYHCgOAX9f-6">
          <mxGeometry relative="1" as="geometry" />
        </mxCell>
        <mxCell id="KzQZjvHMSEyYHCgOAX9f-26" value="7: get notif data by ID" style="edgeLabel;html=1;align=center;verticalAlign=middle;resizable=0;points=[];fontSize=16;" vertex="1" connectable="0" parent="KzQZjvHMSEyYHCgOAX9f-24">
          <mxGeometry x="-0.0201" y="-4" relative="1" as="geometry">
            <mxPoint x="-1" y="-11" as="offset" />
          </mxGeometry>
        </mxCell>
        <mxCell id="KzQZjvHMSEyYHCgOAX9f-33" style="edgeStyle=orthogonalEdgeStyle;rounded=0;orthogonalLoop=1;jettySize=auto;html=1;exitX=1;exitY=0.5;exitDx=0;exitDy=0;" edge="1" parent="1" source="KzQZjvHMSEyYHCgOAX9f-19" target="KzQZjvHMSEyYHCgOAX9f-32">
          <mxGeometry relative="1" as="geometry" />
        </mxCell>
        <mxCell id="KzQZjvHMSEyYHCgOAX9f-34" value="9: request send email" style="edgeLabel;html=1;align=center;verticalAlign=middle;resizable=0;points=[];fontSize=16;" vertex="1" connectable="0" parent="KzQZjvHMSEyYHCgOAX9f-33">
          <mxGeometry x="-0.1525" relative="1" as="geometry">
            <mxPoint x="16" y="-13" as="offset" />
          </mxGeometry>
        </mxCell>
        <mxCell id="KzQZjvHMSEyYHCgOAX9f-19" value="notif-consumer" style="rounded=0;whiteSpace=wrap;html=1;fontSize=16;" vertex="1" parent="1">
          <mxGeometry x="1047" y="231" width="152" height="61" as="geometry" />
        </mxCell>
        <mxCell id="KzQZjvHMSEyYHCgOAX9f-32" value="SMTP" style="ellipse;shape=cloud;whiteSpace=wrap;html=1;" vertex="1" parent="1">
          <mxGeometry x="1395" y="219" width="127.5" height="85" as="geometry" />
        </mxCell>
        <mxCell id="KzQZjvHMSEyYHCgOAX9f-36" style="edgeStyle=orthogonalEdgeStyle;rounded=0;orthogonalLoop=1;jettySize=auto;html=1;exitX=0.5;exitY=0;exitDx=0;exitDy=0;exitPerimeter=0;strokeColor=default;endArrow=none;endFill=0;dashed=1;" edge="1" parent="1" source="KzQZjvHMSEyYHCgOAX9f-35">
          <mxGeometry relative="1" as="geometry">
            <mxPoint x="297.5" y="266.16667683919275" as="targetPoint" />
          </mxGeometry>
        </mxCell>
        <mxCell id="KzQZjvHMSEyYHCgOAX9f-35" value="&lt;div&gt;{&lt;/div&gt;&lt;div&gt;&amp;nbsp; &quot;type&quot; : &quot;email&quot;,&lt;/div&gt;&lt;div&gt;&amp;nbsp; &quot;data&quot; : {&lt;/div&gt;&lt;div&gt;&amp;nbsp; &amp;nbsp; &quot;recipient&quot; : &quot;didinkha@gmail.com&quot;,&lt;/div&gt;&lt;div&gt;&amp;nbsp; &amp;nbsp; &quot;subject&quot; : &quot;Test email&quot;,&lt;/div&gt;&lt;div&gt;&amp;nbsp; &amp;nbsp; &quot;body&quot; : &quot;It works!&quot;&lt;/div&gt;&lt;div&gt;&amp;nbsp; }&lt;/div&gt;&lt;div&gt;}&lt;/div&gt;" style="shape=note;whiteSpace=wrap;html=1;backgroundOutline=1;darkOpacity=0.05;align=left;spacing=10;" vertex="1" parent="1">
          <mxGeometry x="184" y="330" width="227" height="133" as="geometry" />
        </mxCell>
      </root>
    </mxGraphModel>
  </diagram>
</mxfile>
